<svg xmlns="http://www.w3.org/2000/svg" viewBox="0 0 24 24"><path fill="#666" stroke="none" d="M 3.5 20.5 Q 4.05 19.95 4.05 19.2 L 4.05 18.8 1.95 18.8 1.95 21.05 2.2 21.05 Q 2.95 21.05 3.5 20.5 M 14.55 3 Q 13.7 3 13.05 3.65 12.45 4.25 12.45 5.1 L 12.45 14.55 Q 12.45 15.35 12.05 15.8 11.65 16.4 10.8 16.4 10.2 16.4 9.8 16.75 9.4 17.15 9.3 17.7 9.3 17.9 9.4 18.05 9.5 18.2 9.7 18.25 10.25 18.4 10.8 18.4 12.75 18.4 13.7 17.2 14.5 16.25 14.55 14.75 L 14.55 3 M 11.35 11.6 Q 11.35 9.85 10.35 8.7 9.25 7.35 7.2 7.35 L 2.8 7.35 Q 2.45 7.35 2.2 7.6 1.95 7.85 1.95 8.15 L 1.95 10.8 4.05 10.8 4.05 9.45 7.1 9.45 Q 8.05 9.45 8.55 10.15 9 10.75 9 11.6 9 12.5 8.55 13.1 8.05 13.75 7.1 13.75 L 7 13.75 7 15.85 7.2 15.85 Q 9.25 15.85 10.35 14.55 11.35 13.35 11.35 11.6 Z"/><path fill="#E9571E" d="M 4.85 16.65 L 4.85 18.15 7.15 20.45 Q 7.5 20.75 7.9 20.9 8.25 21.05 8.65 21.05 8.95 21.05 9.2 21 9.7 20.85 10.1 20.45 L 10.15 20.45 6.35 16.65 4.85 16.65 M 23.35 14.9 Q 24.05 14.85 24.05 14.15 24.05 12.3 22.85 11.15 21.7 10.05 19.95 10.05 18.2 10.05 17 11.15 15.75 12.35 15.75 14.2 15.75 16.05 16.95 17.25 18.15 18.4 19.95 18.4 21.6 18.4 22.8 17.45 L 23 17.3 Q 23.2 17 23.15 16.65 23.1 16.25 22.8 16.05 22.6 15.85 22.3 15.85 22.05 15.85 21.85 16.05 21.05 16.6 20.05 16.6 19.15 16.6 18.6 16.15 18 15.75 17.8 14.9 L 23.35 14.9 M 21.4 12.25 Q 21.95 12.7 22.05 13.5 L 17.8 13.5 Q 18.15 11.8 19.95 11.8 20.85 11.8 21.4 12.25 Z"/><path fill="#1EB0E9" d="M 4.05 11.85 L 1.95 11.85 1.95 13.75 0.05 13.75 0.05 15.85 1.95 15.85 1.95 17.8 4.05 17.8 4.05 15.85 6 15.85 6 13.75 4.05 13.75 4.05 11.85 Z"/></svg>